<svg width="93" height="24" viewBox="0 0 93 24" fill="none" xmlns="http://www.w3.org/2000/svg">
<g clip-path="url(#clip0_2_3650)">
<path d="M2.70957 10.1539H6.8013V7.78419H2.70957V2.4455H7.46501V0.0275879H0V18.3169H7.54028V15.899H2.70957V10.1539Z" fill="#6A38EB"/>
<path d="M34.506 15.9748H30.8454V0.0275879H28.1358V16.643C28.1358 17.7176 28.7106 18.3169 29.778 18.3169H35.5598C36.634 18.3169 37.2225 17.7176 37.2225 16.643V0.0275879H34.506V15.9748Z" fill="#6A38EB"/>
<path d="M42.1695 0.0275879H39.4599V18.3169H42.1695V0.0275879Z" fill="#6A38EB"/>
<path d="M43.6201 2.4455H46.5965V18.3169H49.3061V2.4455H52.303V0.0275879H43.6201V2.4455Z" fill="#6A38EB"/>
<path d="M58.1258 7.97707L55.9636 0.0275879H53.1583V0.124029L56.7437 11.5936V18.3169H59.4806V11.5936L63.0728 0.124029V0.0275879H60.288L58.1258 7.97707Z" fill="#6A38EB"/>
<path d="M71.5368 0.0275879H66.0698C65.0229 0.0275879 64.4276 0.626899 64.4276 1.70153V5.77271C64.4276 6.46846 64.5713 6.82667 65.0229 7.2331L70.4694 12.4271V16.0161H67.1372V12.2825H64.4276V16.643C64.4276 17.7176 65.0229 18.3169 66.0698 18.3169H71.5368C72.5837 18.3169 73.179 17.7176 73.179 16.6499V12.2894C73.179 11.6005 73.0353 11.2423 72.5837 10.8083L67.1372 5.63494V2.32839H70.4694V5.77271H73.179V1.68086C73.179 0.626899 72.5837 0.0275879 71.5368 0.0275879Z" fill="#6A38EB"/>
<path d="M78.0508 10.1539H82.1425V7.78419H78.0508V2.4455H82.8062V0.0275879H75.3412V18.3169H82.8815V15.899H78.0508V10.1539Z" fill="#6A38EB"/>
<path d="M83.9489 0.0275879V2.4455H86.9185V18.3169H89.6349V2.4455H92.625V0.0275879H83.9489Z" fill="#6A38EB"/>
<path d="M17.4001 5.26978H16.9485V6.30996H16.4969V12.8197H16.9485V13.9495H17.4001V12.8197H17.8517V6.30996H17.4001V5.26978Z" fill="#6A38EB"/>
<path d="M19.7265 5.81396H19.2749V7.63256H18.8233V9.14117H19.2749V10.8289H19.7265V9.14117H20.1781V7.63256H19.7265V5.81396Z" fill="#6A38EB"/>
<path d="M26.6168 9.38233C26.6161 7.43159 26.0112 5.52961 24.8864 3.94121C23.7616 2.3528 22.1728 1.15703 20.3413 0.520382C18.5097 -0.116269 16.5266 -0.162114 14.668 0.389229C12.8093 0.940573 11.1677 2.06166 9.97165 3.59641C8.7756 5.13116 8.08466 7.00319 7.99502 8.95184C7.90539 10.9005 8.42152 12.8288 9.47155 14.4683C10.5216 16.1077 12.0533 17.3768 13.8533 18.0987C15.6534 18.8206 17.6323 18.9595 19.5144 18.496L27.691 24L24.7488 15.0172C25.9627 13.393 26.6184 11.415 26.6168 9.38233V9.38233ZM17.3728 16.0643C16.5881 16.0656 15.8095 15.9256 15.0737 15.651V14.535H15.5253V12.1378H15.0737V11.1527H14.6221V12.1378H14.1637V14.535H14.6153V15.465C13.8903 15.1359 13.2298 14.6786 12.6652 14.1148V14.0528H13.1168V10.3674H12.6652V9.31344H12.2136V10.3674H11.762V13.0058C10.9142 11.699 10.5423 10.1368 10.7097 8.58511C10.8771 7.0334 11.5734 5.58802 12.6801 4.49495C13.7868 3.40188 15.2355 2.72866 16.7797 2.58986C18.3239 2.45106 19.8682 2.85525 21.1497 3.73365V9.60965H21.6013V10.519H22.0529V9.60965H22.5045V4.9736C23.3266 5.95715 23.8525 7.15667 24.0203 8.43096C24.1881 9.70526 23.9908 11.0013 23.4516 12.1665C22.9125 13.3317 22.0539 14.3176 20.977 15.0082C19.9 15.6987 18.6496 16.0651 17.3728 16.0643V16.0643Z" fill="#6A38EB"/>
</g>
<defs>
<clipPath id="clip0_2_3650">
<rect width="92.625" height="24" fill="white"/>
</clipPath>
</defs>
</svg>
